<svg width="407" height="407" viewBox="0 0 407 407" fill="none" xmlns="http://www.w3.org/2000/svg">
<path d="M288.552 0H118.146C44.1267 0 0 44.1267 0 118.146V288.349C0 362.571 44.1267 406.698 118.146 406.698H288.349C362.368 406.698 406.494 362.571 406.494 288.552V118.146C406.698 44.1267 362.571 0 288.552 0ZM279.605 279.605H127.093C118.756 279.605 111.842 272.691 111.842 264.354C111.842 256.016 118.756 249.102 127.093 249.102H279.605C287.942 249.102 294.856 256.016 294.856 264.354C294.856 272.691 287.942 279.605 279.605 279.605ZM279.605 157.595H127.093C118.756 157.595 111.842 150.682 111.842 142.344C111.842 134.007 118.756 127.093 127.093 127.093H279.605C287.942 127.093 294.856 134.007 294.856 142.344C294.856 150.682 287.942 157.595 279.605 157.595Z" fill="black" fill-opacity="0.5"/>
</svg>
